<svg xmlns="http://www.w3.org/2000/svg" width="114" height="114" fill="none"><path fill="#DDD6FE" d="M53.649.333.333 27.285v61.911l60.732 24.471h.025v-.013l52.577-30.958V20.794L53.649.334Z"/><path fill="#C4B5FD" d="M113.667 20.794 53.649.334.333 27.283v61.912l60.732 24.471h.025V51.736l-.012-.005 52.589-30.937Z"/><path fill="#8B5CF6" d="M61.09 51.735v61.931h-.025L.334 89.196V27.29l7.144 2.876 53.613 21.57Z"/><path fill="#A78BFA" d="M61.09 51.735v53.426l-39.955-16.11A21.821 21.821 0 0 1 7.482 68.82V30.166l53.608 21.57Z"/><path fill="#5B21B6" d="m88.128 12.08-1.072.586-51.882 28.638-.098 19.912-8.216-3.07-5.364-2.023V35.82L75.572 7.816l12.556 4.265Z"/><path fill="#6D28D9" d="M87.116 12.666 35.234 41.304l-.098 19.913-8.216-3.072V38.599l54.1-28.004 6.096 2.072Z"/></svg>