<svg xmlns="http://www.w3.org/2000/svg" width="136" height="68" fill="none"><path fill="#8B5CF6" d="m134.59 40.26-11.686-20.213a3.245 3.245 0 0 0-1.222-1.201 3.408 3.408 0 0 0-1.685-.437h-18.075V1.72a1.7 1.7 0 0 0-.524-1.215A1.827 1.827 0 0 0 100.137 0H27.922a1.824 1.824 0 0 0-1.26.506c-.334.322-.523.76-.524 1.216v54.44c0 .663.273 1.299.758 1.767a2.64 2.64 0 0 0 1.832.732h105.718a1.56 1.56 0 0 0 1.101-.438 1.457 1.457 0 0 0 .453-1.062V45.537a10.587 10.587 0 0 0-1.41-5.275Z"/><path fill="#A78BFA" d="M136.001 45.536v7.774h-22.554a5.347 5.347 0 0 1-3.712-1.483 4.974 4.974 0 0 1-1.538-3.581V18.408h11.801a3.408 3.408 0 0 1 1.685.437c.511.288.933.703 1.222 1.202L134.59 40.26a10.598 10.598 0 0 1 1.411 5.276Z"/><path fill="#A5B4FC" d="M128.545 58.67A8.876 8.876 0 0 1 126.79 64a9.632 9.632 0 0 1-4.805 3.499 9.995 9.995 0 0 1-6.02.073 9.652 9.652 0 0 1-4.894-3.382 9.094 9.094 0 0 1-1.867-5.52c0-2.475 1.019-4.848 2.832-6.597 1.814-1.75 4.274-2.733 6.839-2.733 2.564 0 5.024.983 6.838 2.733s2.832 4.122 2.832 6.597Z"/><path fill="#A78BFA" d="M101.922 1.722v51.867H43.036c-1.392 0-2.77-.265-4.055-.779a10.628 10.628 0 0 1-3.437-2.215 10.202 10.202 0 0 1-2.297-3.316 9.909 9.909 0 0 1-.806-3.911V0h67.696c.473.001.926.183 1.26.506.335.322.523.76.525 1.216Z"/><path fill="#C4B5FD" d="M128.545 58.67A8.877 8.877 0 0 1 126.79 64a9.03 9.03 0 0 1-2.619.362c-2.565-.001-5.025-.984-6.838-2.734-1.813-1.75-2.833-4.122-2.833-6.596a8.94 8.94 0 0 1 1.784-5.386 10.04 10.04 0 0 1 4.415-.161 9.867 9.867 0 0 1 4.031 1.745 9.436 9.436 0 0 1 2.81 3.29 9.073 9.073 0 0 1 1.005 4.15Z"/><path fill="#A5B4FC" d="M66.174 58.67a9.087 9.087 0 0 1-1.456 4.915 9.555 9.555 0 0 1-3.923 3.437 9.977 9.977 0 0 1-5.21.927 9.877 9.877 0 0 1-4.936-1.861 9.366 9.366 0 0 1-3.178-4.091 9.02 9.02 0 0 1-.465-5.093 9.211 9.211 0 0 1 2.386-4.564 9.735 9.735 0 0 1 4.52-2.666 8.833 8.833 0 0 1 2.591-.361 9.99 9.99 0 0 1 3.706.715 9.71 9.71 0 0 1 3.14 2.03 9.32 9.32 0 0 1 2.095 3.034 9.053 9.053 0 0 1 .73 3.578Z"/><path fill="#C4B5FD" d="M66.174 58.67A9.07 9.07 0 0 1 64.418 64a9.029 9.029 0 0 1-2.619.362c-2.565 0-5.024-.984-6.837-2.733-1.814-1.75-2.833-4.122-2.834-6.596a8.92 8.92 0 0 1 1.785-5.36 8.834 8.834 0 0 1 2.59-.36 9.99 9.99 0 0 1 3.706.715 9.71 9.71 0 0 1 3.14 2.03c.898.868 1.61 1.9 2.095 3.034a9.05 9.05 0 0 1 .73 3.578Z"/><path fill="#A5B4FC" d="M34.677 44.726h-27.4a2.2 2.2 0 0 1-1.527-.61 2.046 2.046 0 0 1-.632-1.473c0-.552.227-1.082.632-1.472a2.2 2.2 0 0 1 1.526-.61h27.401a2.2 2.2 0 0 1 1.526.61c.405.39.633.92.633 1.472 0 .553-.228 1.082-.633 1.473a2.2 2.2 0 0 1-1.526.61Zm21.832-9.471H18.277a2.2 2.2 0 0 1-1.527-.61 2.046 2.046 0 0 1-.632-1.473c0-.552.228-1.082.632-1.472a2.2 2.2 0 0 1 1.527-.61h38.232a2.2 2.2 0 0 1 1.526.61c.405.39.632.92.632 1.472 0 .553-.227 1.082-.632 1.473a2.2 2.2 0 0 1-1.526.61Zm-39.42-10.996H2.158a2.2 2.2 0 0 1-1.527-.61A2.046 2.046 0 0 1 0 22.177c0-.552.227-1.082.632-1.473a2.2 2.2 0 0 1 1.527-.61h14.93a2.2 2.2 0 0 1 1.526.61c.404.39.632.92.632 1.473 0 .552-.228 1.082-.632 1.472a2.2 2.2 0 0 1-1.527.61Zm23.938-11.503H14.672c-.572 0-1.121-.22-1.526-.61a2.046 2.046 0 0 1-.632-1.473c0-.552.227-1.082.632-1.472a2.2 2.2 0 0 1 1.526-.61h26.354a2.2 2.2 0 0 1 1.526.61c.405.39.632.92.632 1.472 0 .553-.227 1.082-.632 1.473-.405.39-.954.61-1.526.61Z"/></svg>