<svg xmlns="http://www.w3.org/2000/svg" width="50" height="74" fill="none"><mask id="a" width="50" height="74" x="0" y="0" maskUnits="userSpaceOnUse" style="mask-type:luminance"><path fill="#fff" d="M50 0H0v74h50V0Z"/></mask><g mask="url(#a)"><path fill="#A78BFA" d="M25.908 0c-2.799 0-5.483 1.1-7.463 3.057a10.38 10.38 0 0 0-3.092 7.378v4.741h-4.795a10.658 10.658 0 0 0-4.043.793 10.56 10.56 0 0 0-3.427 2.263c-.981.97-1.759 2.12-2.29 3.388a10.33 10.33 0 0 0-.8 3.997v10.432H15.35v9.481h-4.796a10.62 10.62 0 0 0-7.465 3.056 10.379 10.379 0 0 0-3.095 7.38v18.028H10.56c1.386 0 2.758-.27 4.038-.796a10.559 10.559 0 0 0 3.423-2.263c.98-.97 1.756-2.12 2.285-3.386.53-1.267.802-2.623.801-3.993h.014v-6.888l-.029.004V12.79l.024.005v-2.359a4.735 4.735 0 0 1 1.406-3.354 4.845 4.845 0 0 1 3.389-1.4h18.337v4.754a4.728 4.728 0 0 1-1.41 3.35 4.838 4.838 0 0 1-3.39 1.39H23.285v5.69h16.159c2.799.001 5.483-1.098 7.463-3.055A10.375 10.375 0 0 0 50 10.434V0H25.908ZM15.353 30.358H5.759v-4.74a4.738 4.738 0 0 1 1.408-3.358 4.847 4.847 0 0 1 3.393-1.4h4.795l-.002 9.498Zm0 33.203a4.726 4.726 0 0 1-1.406 3.351 4.835 4.835 0 0 1-3.39 1.394h-4.8V55.97a4.718 4.718 0 0 1 1.407-3.353c.9-.89 2.121-1.389 3.394-1.388h4.795V63.56Zm7.933-27.513h12.11v4.746a4.731 4.731 0 0 1-1.411 3.349 4.84 4.84 0 0 1-3.39 1.391h-7.31v5.694h7.313c1.386 0 2.759-.269 4.04-.793a10.56 10.56 0 0 0 3.425-2.262c.98-.97 1.758-2.12 2.288-3.386.53-1.267.803-2.624.802-3.995h.005V30.357H23.286v5.691Z"/></g></svg>