<svg xmlns="http://www.w3.org/2000/svg" width="114" height="136" fill="none"><path fill="#A78BFA" d="M49.6 86.17a4.28 4.28 0 0 0-2.07-1.3 4.176 4.176 0 0 0-2.421.06l-7.687 2.524a3.076 3.076 0 0 1-2.55-.282 3.201 3.201 0 0 1-.973-.904 3.315 3.315 0 0 1-.536-1.233l-1.725-8.125a4.493 4.493 0 0 0-1.165-2.191 4.282 4.282 0 0 0-2.125-1.199l-.363-.082L.332 115.203l22.523-1.55L29.125 136l28.25-42.614a3.039 3.039 0 0 1-1.282-.275 3.125 3.125 0 0 1-1.059-.792L49.6 86.17Z"/><path fill="#A78BFA" d="M49.6 86.17a4.324 4.324 0 0 0-1.444-1.077 4.139 4.139 0 0 0-3.047-.174l-7.687 2.524a3.079 3.079 0 0 1-2.55-.283 3.204 3.204 0 0 1-.975-.903 3.318 3.318 0 0 1-.537-1.233l-.851-4.03-22.787 33.563 13.131-.904 3.656 13.028L52.1 88.999l-2.5-2.829Zm14.795 0a4.28 4.28 0 0 1 2.069-1.3c.796-.22 1.636-.199 2.421.06l7.688 2.524a3.074 3.074 0 0 0 2.549-.282 3.2 3.2 0 0 0 .974-.904c.26-.368.442-.788.536-1.233l1.724-8.125a4.49 4.49 0 0 1 1.165-2.19 4.279 4.279 0 0 1 2.126-1.197l.363-.082 27.657 41.762-22.523-1.55L84.875 136 56.62 93.386c.441.003.878-.09 1.281-.275a3.126 3.126 0 0 0 1.06-.793l5.434-6.148Z"/><path fill="#A78BFA" d="M64.395 86.17a4.28 4.28 0 0 1 2.069-1.3c.796-.22 1.636-.199 2.421.06l7.688 2.524a3.076 3.076 0 0 0 2.549-.282 3.2 3.2 0 0 0 .974-.904c.26-.368.442-.788.536-1.233l.85-4.03 22.784 33.552-13.133-.904-3.654 13.028-25.583-37.682 2.5-2.829Z"/><path fill="#7C3AED" d="m68.167 89.771 7.376 2.422a7.761 7.761 0 0 0 3.285.342 7.825 7.825 0 0 0 3.138-1.057 8.08 8.08 0 0 0 2.457-2.275 8.365 8.365 0 0 0 1.354-3.105l1.65-7.792 1.567-.351-2.987-4.514-.363.082a4.279 4.279 0 0 0-2.123 1.2 4.49 4.49 0 0 0-1.162 2.187l-1.725 8.126a3.313 3.313 0 0 1-.536 1.233c-.26.368-.592.675-.974.903a3.074 3.074 0 0 1-2.549.283l-7.687-2.524a4.177 4.177 0 0 0-2.422-.06 4.28 4.28 0 0 0-2.068 1.3l-5.435 6.142c-.233.308-.531.558-.872.729a2.43 2.43 0 0 1-2.186 0 2.508 2.508 0 0 1-.871-.729l-5.432-6.142a4.324 4.324 0 0 0-1.443-1.078 4.136 4.136 0 0 0-3.047-.174l-7.688 2.524a3.077 3.077 0 0 1-2.55-.282 3.205 3.205 0 0 1-.975-.904 3.318 3.318 0 0 1-.537-1.233L31.641 76.9a4.492 4.492 0 0 0-1.17-2.183 4.28 4.28 0 0 0-2.124-1.193l-.36-.082-2.973 4.499 1.657.371 1.65 7.792c.238 1.121.7 2.178 1.357 3.105a8.08 8.08 0 0 0 2.457 2.273 7.826 7.826 0 0 0 3.14 1.056 7.762 7.762 0 0 0 3.284-.344l7.355-2.442 5.228 5.917a7.942 7.942 0 0 0 3.274 2.188l2.58-3.899 2.605 3.925a7.936 7.936 0 0 0 3.356-2.214l5.21-5.897Z"/><path fill="#8B5CF6" d="M49.6 86.17a4.326 4.326 0 0 0-1.443-1.077 4.136 4.136 0 0 0-3.047-.174l-7.688 2.524a3.077 3.077 0 0 1-2.55-.283 3.204 3.204 0 0 1-.975-.903 3.316 3.316 0 0 1-.537-1.233l-.85-4.03-22.787 33.563 13.13-.904 3.657 13.028 25.589-37.682-2.5-2.829Zm31.889-5.165-.851 4.03a3.313 3.313 0 0 1-.536 1.233c-.26.368-.592.676-.974.904a3.076 3.076 0 0 1-2.55.283l-7.687-2.525a4.175 4.175 0 0 0-2.421-.06 4.28 4.28 0 0 0-2.069 1.3L61.902 89l25.589 37.682 3.653-13.028 13.134.904-22.79-33.552Z"/><path fill="#A78BFA" d="m52.099 88.999-2.5-2.829a4.325 4.325 0 0 0-1.442-1.077 4.136 4.136 0 0 0-3.047-.174l-7.688 2.524a3.077 3.077 0 0 1-2.55-.283 3.206 3.206 0 0 1-.975-.903 3.32 3.32 0 0 1-.537-1.233l-.85-4.03-3.972 5.85c.643 2.078 2.059 3.808 3.938 4.811a7.77 7.77 0 0 0 6.084.538l7.355-2.442 3.208 3.632 2.979-4.387-.003.003Zm23.441 3.194a7.772 7.772 0 0 0 6.037-.501c1.87-.977 3.294-2.674 3.962-4.723l-4.05-5.964-.851 4.03a3.314 3.314 0 0 1-.536 1.233c-.26.368-.592.676-.974.904a3.076 3.076 0 0 1-2.549.283L68.89 84.93a4.176 4.176 0 0 0-2.421-.06 4.28 4.28 0 0 0-2.069 1.3L61.902 89l3.015 4.443 3.251-3.677 7.372 2.428Z"/><path fill="#6D28D9" d="m86.194 19.87 7.883 1.776c.508.115.987.338 1.407.655.42.317.771.72 1.031 1.185a3.974 3.974 0 0 1 .325 3.097l-2.448 7.927a3.97 3.97 0 0 0-.049 2.167 3.877 3.877 0 0 0 1.093 1.852l5.957 5.601c.384.361.692.802.902 1.292a3.963 3.963 0 0 1 0 3.117c-.21.49-.518.93-.902 1.292l-5.957 5.604a3.875 3.875 0 0 0-1.094 1.852 3.966 3.966 0 0 0 .05 2.167l2.448 7.927a3.97 3.97 0 0 1-.325 3.096c-.26.464-.611.867-1.03 1.184-.42.317-.9.54-1.408.654l-7.883 1.778a3.707 3.707 0 0 0-1.845 1.04 3.891 3.891 0 0 0-1.008 1.903l-1.725 8.125a3.912 3.912 0 0 1-.633 1.453 3.78 3.78 0 0 1-1.148 1.064 3.628 3.628 0 0 1-3.004.335l-7.688-2.524a3.621 3.621 0 0 0-2.102-.052 3.711 3.711 0 0 0-1.795 1.128l-5.435 6.143c-.35.396-.777.713-1.252.93a3.64 3.64 0 0 1-3.021 0 3.742 3.742 0 0 1-1.253-.93l-5.435-6.143a3.711 3.711 0 0 0-1.795-1.128 3.621 3.621 0 0 0-2.102.052l-7.687 2.524a3.628 3.628 0 0 1-3.004-.335 3.778 3.778 0 0 1-1.149-1.064 3.909 3.909 0 0 1-.633-1.453l-1.724-8.125a3.891 3.891 0 0 0-1.009-1.903 3.707 3.707 0 0 0-1.845-1.04l-7.883-1.778a3.686 3.686 0 0 1-1.407-.654 3.82 3.82 0 0 1-1.03-1.184 3.969 3.969 0 0 1-.325-3.096l2.447-7.927a3.966 3.966 0 0 0 .05-2.167 3.875 3.875 0 0 0-1.093-1.852l-5.957-5.604a3.853 3.853 0 0 1-.903-1.292 3.958 3.958 0 0 1 0-3.117c.21-.49.518-.93.903-1.292l5.957-5.601a3.877 3.877 0 0 0 1.092-1.852 3.97 3.97 0 0 0-.049-2.167l-2.448-7.926a3.974 3.974 0 0 1 .325-3.098 3.82 3.82 0 0 1 1.031-1.185c.42-.317.9-.54 1.407-.655l7.883-1.775a3.708 3.708 0 0 0 1.845-1.04 3.891 3.891 0 0 0 1.009-1.903L32.48 8.8a3.91 3.91 0 0 1 .634-1.452 3.777 3.777 0 0 1 1.149-1.063 3.629 3.629 0 0 1 3.003-.334l7.687 2.524c.681.224 1.41.24 2.101.05A3.723 3.723 0 0 0 48.85 7.4l5.435-6.143c.35-.396.778-.712 1.253-.928a3.645 3.645 0 0 1 3.02 0c.476.216.903.532 1.253.928L65.246 7.4a3.723 3.723 0 0 0 1.796 1.126c.69.19 1.42.174 2.101-.05l7.688-2.524a3.63 3.63 0 0 1 3.003.334c.45.268.842.63 1.148 1.063.307.433.523.928.634 1.452l1.725 8.128c.152.72.503 1.381 1.008 1.903a3.708 3.708 0 0 0 1.845 1.04Z"/><path fill="#A78BFA" d="M86.578 46.994a31.157 31.157 0 0 1-4.409 15.971c-2.876 4.8-6.99 8.681-11.88 11.211a28.764 28.764 0 0 1-15.819 3.116c-5.45-.493-10.661-2.537-15.05-5.906-4.39-3.368-7.786-7.928-9.809-13.17a31.334 31.334 0 0 1-1.647-16.52c.946-5.557 3.37-10.734 7.004-14.953 3.633-4.219 8.331-7.314 13.57-8.94a28.319 28.319 0 0 1 8.51-1.287c3.88 0 7.723.789 11.307 2.321a29.49 29.49 0 0 1 9.583 6.608 30.531 30.531 0 0 1 6.4 9.888 31.277 31.277 0 0 1 2.24 11.66Z"/><path fill="#8B5CF6" d="M86.577 46.994a31.165 31.165 0 0 1-3.688 14.744c-2.421 4.513-5.915 8.316-10.154 11.054a28.319 28.319 0 0 1-8.51 1.287c-6.414.004-12.655-2.145-17.78-6.122-5.124-3.977-8.854-9.566-10.626-15.922a31.353 31.353 0 0 1 .806-19.31c2.295-6.176 6.476-11.414 11.913-14.922a28.318 28.318 0 0 1 8.51-1.287c3.88 0 7.722.789 11.306 2.321a29.488 29.488 0 0 1 9.583 6.608 30.534 30.534 0 0 1 6.4 9.888 31.278 31.278 0 0 1 2.24 11.66Z"/><path fill="#F5F3FF" d="M59.198 65.78a2.095 2.095 0 0 1-1.504-.642 2.23 2.23 0 0 1-.623-1.551V36.385l-5.486 3.864c-.23.169-.492.289-.768.352a2.064 2.064 0 0 1-1.621-.299 2.16 2.16 0 0 1-.602-.605 2.259 2.259 0 0 1-.005-2.464c.159-.242.362-.449.599-.608l8.81-6.207a2.074 2.074 0 0 1 2.194-.128c.343.187.63.466.829.808.2.342.305.734.305 1.134v31.355c0 .582-.224 1.14-.623 1.551-.4.412-.94.643-1.505.643Z"/></svg>